<svg width="66" height="66" viewBox="0 0 66 66" fill="none" xmlns="http://www.w3.org/2000/svg">
<path fill-rule="evenodd" clip-rule="evenodd" d="M40.4659 62.4109C40.4129 62.4348 40.3587 62.4559 40.3036 62.4743L40.264 62.4848C40.1157 62.5311 39.9613 62.5547 39.8059 62.5548C39.5625 62.5603 39.3212 62.5089 39.1012 62.4046C38.8812 62.3003 38.6886 62.1461 38.5387 61.9542C38.4659 61.8652 38.4026 61.7687 38.35 61.6664L27.8401 43.4636V49.5475C27.8401 50.0623 27.5959 50.5441 27.1894 50.849L27.0283 50.9546L12.9492 59.0832C12.702 59.2256 12.4217 59.3005 12.1364 59.3003C11.8511 59.3001 11.5709 59.2249 11.3239 59.0822C11.0769 58.9395 10.8718 58.7343 10.7291 58.4873C10.5864 58.2402 10.5113 57.96 10.5112 57.6747V13.0112C10.5112 12.342 10.8676 11.847 11.3494 11.5869L25.4034 3.47554C25.7763 3.2609 26.219 3.20276 26.6346 3.31384C27.0503 3.42493 27.4049 3.69618 27.621 4.06822L38.1744 22.275V13.0112C38.1744 12.4964 38.4199 12.0146 38.8278 11.7097L38.9875 11.6041L53.0666 3.47554C53.3138 3.33313 53.5941 3.25825 53.8794 3.25842C54.1647 3.25859 54.4449 3.3338 54.6919 3.47651C54.9389 3.61921 55.1441 3.82438 55.2867 4.07143C55.4294 4.31847 55.5046 4.5987 55.5047 4.88398V52.7987C55.5047 53.3795 55.1945 53.9154 54.6916 54.2058L40.6956 62.2881C40.6256 62.3331 40.5524 62.3728 40.4765 62.4069V62.4056L40.4659 62.4109ZM52.2535 7.69954L41.4256 13.9511V58.1103L52.2535 51.8588V7.69954ZM25.6212 7.10158L14.3563 13.6052L38.1744 54.8592V28.7601L25.6225 7.10158H25.6212ZM13.761 19.0793V54.8592L24.589 48.6077V37.8325L22.6697 34.5087L13.761 19.0806V19.0793Z" fill="#040062"/>
</svg>
